<svg width="114" height="34" viewBox="0 0 114 34" fill="none" xmlns="http://www.w3.org/2000/svg">
<path d="M14.8471 25.9577C12.7965 27.2286 11.2135 26.5576 9.86531 24.789C9.55421 24.3809 9.14121 24.0506 8.77511 23.6845C6.9524 21.8617 6.89914 21.5762 8.01341 19.15C9.77061 15.6462 11.4657 12.2629 13.1608 8.8796C14.861 6.40739 16.7409 4.11929 19.4024 2.59556C23.247 0.394488 27.3648 -0.0687215 31.665 0.640828C32.6152 0.797618 33.2314 1.41633 33.3799 2.36566C34.5405 9.7867 32.2395 16.3535 25.2271 20.714C24.4225 21.1817 23.7573 21.6279 23.0452 21.9788C20.3207 23.3217 17.5811 24.634 14.8471 25.9577ZM23.2063 7.1781C22.502 8.539 22.6293 9.7525 23.5646 10.5917C24.4591 11.3944 25.8623 11.4776 26.8351 10.7857C28.0445 9.9256 28.2952 8.2585 27.3881 7.1087C26.3593 5.80478 24.6687 5.78103 23.2063 7.1781Z" fill="#0085DB"/>
<path fill-rule="evenodd" clip-rule="evenodd" d="M8.0166 19.0725C9.7708 15.6464 11.4659 12.2631 13.0646 8.8721C12.4544 8.8694 11.8567 8.8715 11.267 8.8735C10.2217 8.8772 9.2016 8.8808 8.1821 8.8572C6.30521 8.8136 4.89865 9.6136 3.92814 11.1715C2.81085 12.965 1.71679 14.7746 0.671101 16.6105C-0.123759 18.0061 0.531061 19.0951 2.13073 19.1102C4.07283 19.1286 6.01523 19.115 8.0166 19.0725ZM21.0507 22.9577C18.986 23.9683 16.9165 24.9813 14.8543 26.0582C14.8573 26.7524 14.856 27.4343 14.8546 28.1082C14.8522 29.3502 14.8497 30.5649 14.8752 31.7789C14.9095 33.4175 16.1272 34.2053 17.4429 33.4335C19.2659 32.3639 21.0727 31.2626 22.8419 30.1067C24.1371 29.2605 25.0554 28.1078 25.1087 26.4659C25.1705 24.5631 25.2063 22.6595 25.1814 20.7678C24.8657 20.9401 24.5662 21.1179 24.2728 21.2922C23.861 21.5367 23.4612 21.7741 23.0454 21.979C22.3813 22.3064 21.7162 22.6319 21.0507 22.9577Z" fill="#5AC8FA"/>
<path d="M37.72 14V12.644L42.232 6.644L42.94 7.472H38.032V5.6H44.368V6.944L39.88 12.956L39.16 12.212H44.5V14H37.72ZM49.0208 14.12C48.3168 14.12 47.7048 13.98 47.1848 13.7C46.6648 13.412 46.2608 13.024 45.9728 12.536C45.6848 12.04 45.5408 11.476 45.5408 10.844C45.5408 10.356 45.6208 9.908 45.7808 9.5C45.9408 9.092 46.1648 8.74 46.4528 8.444C46.7408 8.14 47.0808 7.908 47.4728 7.748C47.8728 7.58 48.3088 7.496 48.7808 7.496C49.2288 7.496 49.6368 7.576 50.0048 7.736C50.3808 7.896 50.7048 8.12 50.9768 8.408C51.2488 8.696 51.4568 9.036 51.6008 9.428C51.7448 9.82 51.8088 10.248 51.7928 10.712L51.7808 11.228H46.7048L46.4288 10.148H50.2208L50.0168 10.376V10.136C50.0008 9.936 49.9368 9.76 49.8248 9.608C49.7208 9.448 49.5808 9.324 49.4048 9.236C49.2288 9.148 49.0288 9.104 48.8048 9.104C48.4928 9.104 48.2248 9.168 48.0008 9.296C47.7848 9.416 47.6208 9.596 47.5088 9.836C47.3968 10.068 47.3408 10.356 47.3408 10.7C47.3408 11.052 47.4128 11.36 47.5568 11.624C47.7088 11.88 47.9248 12.08 48.2048 12.224C48.4928 12.368 48.8328 12.44 49.2248 12.44C49.4968 12.44 49.7368 12.4 49.9448 12.32C50.1608 12.24 50.3928 12.104 50.6408 11.912L51.5408 13.184C51.2928 13.4 51.0288 13.576 50.7488 13.712C50.4688 13.848 50.1808 13.948 49.8848 14.012C49.5968 14.084 49.3088 14.12 49.0208 14.12ZM56.0521 14.12C55.3481 14.12 54.7361 13.98 54.2161 13.7C53.6961 13.412 53.2921 13.024 53.0041 12.536C52.7161 12.04 52.5721 11.476 52.5721 10.844C52.5721 10.356 52.6521 9.908 52.8121 9.5C52.9721 9.092 53.1961 8.74 53.4841 8.444C53.7721 8.14 54.1121 7.908 54.5041 7.748C54.9041 7.58 55.3401 7.496 55.8121 7.496C56.2601 7.496 56.6681 7.576 57.0361 7.736C57.4121 7.896 57.7361 8.12 58.0081 8.408C58.2801 8.696 58.4881 9.036 58.6321 9.428C58.7761 9.82 58.8401 10.248 58.8241 10.712L58.8121 11.228H53.7361L53.4601 10.148H57.2521L57.0481 10.376V10.136C57.0321 9.936 56.9681 9.76 56.8561 9.608C56.7521 9.448 56.6121 9.324 56.4361 9.236C56.2601 9.148 56.0601 9.104 55.8361 9.104C55.5241 9.104 55.2561 9.168 55.0321 9.296C54.8161 9.416 54.6521 9.596 54.5401 9.836C54.4281 10.068 54.3721 10.356 54.3721 10.7C54.3721 11.052 54.4441 11.36 54.5881 11.624C54.7401 11.88 54.9561 12.08 55.2361 12.224C55.5241 12.368 55.8641 12.44 56.2561 12.44C56.5281 12.44 56.7681 12.4 56.9761 12.32C57.1921 12.24 57.4241 12.104 57.6721 11.912L58.5721 13.184C58.3241 13.4 58.0601 13.576 57.7801 13.712C57.5001 13.848 57.2121 13.948 56.9161 14.012C56.6281 14.084 56.3401 14.12 56.0521 14.12Z" fill="black"/>
<path d="M67.1426 14.12C66.5586 14.12 66.0226 14.016 65.5346 13.808C65.0466 13.6 64.6226 13.304 64.2626 12.92C63.9026 12.528 63.6226 12.068 63.4226 11.54C63.2306 11.012 63.1346 10.432 63.1346 9.8C63.1346 9.2 63.2386 8.644 63.4466 8.132C63.6626 7.612 63.9586 7.156 64.3346 6.764C64.7106 6.372 65.1466 6.068 65.6426 5.852C66.1386 5.636 66.6746 5.528 67.2506 5.528C67.6586 5.528 68.0546 5.592 68.4386 5.72C68.8306 5.84 69.1826 6.012 69.4946 6.236C69.8146 6.452 70.0746 6.7 70.2746 6.98L69.4106 7.88C69.1786 7.648 68.9426 7.456 68.7026 7.304C68.4706 7.144 68.2306 7.024 67.9826 6.944C67.7426 6.864 67.4986 6.824 67.2506 6.824C66.8586 6.824 66.4906 6.9 66.1466 7.052C65.8106 7.196 65.5146 7.4 65.2586 7.664C65.0106 7.928 64.8146 8.244 64.6706 8.612C64.5266 8.972 64.4546 9.368 64.4546 9.8C64.4546 10.256 64.5226 10.672 64.6586 11.048C64.8026 11.416 65.0026 11.732 65.2586 11.996C65.5146 12.26 65.8186 12.464 66.1706 12.608C66.5306 12.744 66.9266 12.812 67.3586 12.812C67.6226 12.812 67.8826 12.776 68.1386 12.704C68.3946 12.632 68.6346 12.528 68.8586 12.392C69.0826 12.256 69.2866 12.096 69.4706 11.912L70.1186 12.968C69.9346 13.184 69.6826 13.38 69.3626 13.556C69.0506 13.732 68.6986 13.872 68.3066 13.976C67.9226 14.072 67.5346 14.12 67.1426 14.12ZM73.9911 14.12C73.4711 14.12 72.9951 13.976 72.5631 13.688C72.1391 13.4 71.7991 13.008 71.5431 12.512C71.2871 12.016 71.1591 11.456 71.1591 10.832C71.1591 10.2 71.2871 9.64 71.5431 9.152C71.8071 8.656 72.1591 8.268 72.5991 7.988C73.0471 7.708 73.5471 7.568 74.0991 7.568C74.4271 7.568 74.7271 7.616 74.9991 7.712C75.2711 7.808 75.5071 7.944 75.7071 8.12C75.9151 8.288 76.0831 8.484 76.2111 8.708C76.3471 8.932 76.4311 9.172 76.4631 9.428L76.1871 9.332V7.7H77.4351V14H76.1871V12.5L76.4751 12.416C76.4271 12.632 76.3271 12.844 76.1751 13.052C76.0311 13.252 75.8431 13.432 75.6111 13.592C75.3871 13.752 75.1351 13.88 74.8551 13.976C74.5831 14.072 74.2951 14.12 73.9911 14.12ZM74.3151 12.98C74.6911 12.98 75.0231 12.888 75.3111 12.704C75.5991 12.52 75.8231 12.268 75.9831 11.948C76.1511 11.62 76.2351 11.248 76.2351 10.832C76.2351 10.424 76.1511 10.06 75.9831 9.74C75.8231 9.42 75.5991 9.168 75.3111 8.984C75.0231 8.8 74.6911 8.708 74.3151 8.708C73.9471 8.708 73.6191 8.8 73.3311 8.984C73.0511 9.168 72.8271 9.42 72.6591 9.74C72.4991 10.06 72.4191 10.424 72.4191 10.832C72.4191 11.248 72.4991 11.62 72.6591 11.948C72.8271 12.268 73.0511 12.52 73.3311 12.704C73.6191 12.888 73.9471 12.98 74.3151 12.98ZM79.1609 14V7.7H80.4089V9.68L80.2889 9.2C80.3769 8.896 80.5249 8.62 80.7329 8.372C80.9489 8.124 81.1929 7.928 81.4649 7.784C81.7449 7.64 82.0329 7.568 82.3289 7.568C82.4649 7.568 82.5929 7.58 82.7129 7.604C82.8409 7.628 82.9409 7.656 83.0129 7.688L82.6889 9.032C82.5929 8.992 82.4849 8.96 82.3649 8.936C82.2529 8.904 82.1409 8.888 82.0289 8.888C81.8129 8.888 81.6049 8.932 81.4049 9.02C81.2129 9.1 81.0409 9.216 80.8889 9.368C80.7449 9.512 80.6289 9.684 80.5409 9.884C80.4529 10.076 80.4089 10.288 80.4089 10.52V14H79.1609ZM86.1464 14L83.9984 7.7L85.2464 7.688L86.7824 12.404L86.5064 12.38L88.1744 8.696H88.9184L90.5984 12.392L90.2744 12.416L91.8224 7.7H93.0704L90.9464 14H90.0944L88.3424 9.992L88.6184 10.028L86.9864 14H86.1464ZM96.4443 14.12C95.9243 14.12 95.4483 13.976 95.0163 13.688C94.5923 13.4 94.2523 13.008 93.9963 12.512C93.7403 12.016 93.6123 11.456 93.6123 10.832C93.6123 10.2 93.7403 9.64 93.9963 9.152C94.2603 8.656 94.6123 8.268 95.0523 7.988C95.5003 7.708 96.0003 7.568 96.5523 7.568C96.8803 7.568 97.1803 7.616 97.4523 7.712C97.7243 7.808 97.9603 7.944 98.1603 8.12C98.3683 8.288 98.5363 8.484 98.6643 8.708C98.8003 8.932 98.8843 9.172 98.9163 9.428L98.6403 9.332V7.7H99.8883V14H98.6403V12.5L98.9283 12.416C98.8803 12.632 98.7803 12.844 98.6283 13.052C98.4843 13.252 98.2963 13.432 98.0643 13.592C97.8403 13.752 97.5883 13.88 97.3083 13.976C97.0363 14.072 96.7483 14.12 96.4443 14.12ZM96.7683 12.98C97.1443 12.98 97.4763 12.888 97.7643 12.704C98.0523 12.52 98.2763 12.268 98.4363 11.948C98.6043 11.62 98.6883 11.248 98.6883 10.832C98.6883 10.424 98.6043 10.06 98.4363 9.74C98.2763 9.42 98.0523 9.168 97.7643 8.984C97.4763 8.8 97.1443 8.708 96.7683 8.708C96.4003 8.708 96.0723 8.8 95.7843 8.984C95.5043 9.168 95.2803 9.42 95.1123 9.74C94.9523 10.06 94.8723 10.424 94.8723 10.832C94.8723 11.248 94.9523 11.62 95.1123 11.948C95.2803 12.268 95.5043 12.52 95.7843 12.704C96.0723 12.888 96.4003 12.98 96.7683 12.98ZM103.714 14.12C103.186 14.12 102.71 14.028 102.286 13.844C101.862 13.66 101.51 13.388 101.23 13.028L102.07 12.308C102.31 12.588 102.57 12.792 102.85 12.92C103.138 13.04 103.462 13.1 103.822 13.1C103.966 13.1 104.098 13.084 104.218 13.052C104.346 13.012 104.454 12.956 104.542 12.884C104.638 12.812 104.71 12.728 104.758 12.632C104.806 12.528 104.83 12.416 104.83 12.296C104.83 12.088 104.754 11.92 104.602 11.792C104.522 11.736 104.394 11.676 104.218 11.612C104.05 11.54 103.83 11.468 103.558 11.396C103.094 11.276 102.714 11.14 102.418 10.988C102.122 10.836 101.894 10.664 101.734 10.472C101.614 10.32 101.526 10.156 101.47 9.98C101.414 9.796 101.386 9.596 101.386 9.38C101.386 9.116 101.442 8.876 101.554 8.66C101.674 8.436 101.834 8.244 102.034 8.084C102.242 7.916 102.482 7.788 102.754 7.7C103.034 7.612 103.33 7.568 103.642 7.568C103.938 7.568 104.23 7.608 104.518 7.688C104.814 7.768 105.086 7.884 105.334 8.036C105.582 8.188 105.79 8.368 105.958 8.576L105.25 9.356C105.098 9.204 104.93 9.072 104.746 8.96C104.57 8.84 104.39 8.748 104.206 8.684C104.022 8.62 103.854 8.588 103.702 8.588C103.534 8.588 103.382 8.604 103.246 8.636C103.11 8.668 102.994 8.716 102.898 8.78C102.81 8.844 102.742 8.924 102.694 9.02C102.646 9.116 102.622 9.224 102.622 9.344C102.63 9.448 102.654 9.548 102.694 9.644C102.742 9.732 102.806 9.808 102.886 9.872C102.974 9.936 103.106 10.004 103.282 10.076C103.458 10.148 103.682 10.216 103.954 10.28C104.354 10.384 104.682 10.5 104.938 10.628C105.202 10.748 105.41 10.888 105.562 11.048C105.722 11.2 105.834 11.376 105.898 11.576C105.962 11.776 105.994 12 105.994 12.248C105.994 12.608 105.89 12.932 105.682 13.22C105.482 13.5 105.21 13.72 104.866 13.88C104.522 14.04 104.138 14.12 103.714 14.12ZM107.356 14V5.12H108.592V8.996L108.376 9.14C108.456 8.86 108.612 8.604 108.844 8.372C109.076 8.132 109.352 7.94 109.672 7.796C109.992 7.644 110.32 7.568 110.656 7.568C111.136 7.568 111.536 7.664 111.856 7.856C112.176 8.04 112.416 8.324 112.576 8.708C112.736 9.092 112.816 9.576 112.816 10.16V14H111.58V10.244C111.58 9.884 111.532 9.588 111.436 9.356C111.34 9.116 111.192 8.944 110.992 8.84C110.792 8.728 110.544 8.68 110.248 8.696C110.008 8.696 109.788 8.736 109.588 8.816C109.388 8.888 109.212 8.992 109.06 9.128C108.916 9.264 108.8 9.424 108.712 9.608C108.632 9.784 108.592 9.976 108.592 10.184V14H107.98C107.876 14 107.772 14 107.668 14C107.564 14 107.46 14 107.356 14Z" fill="#0085DB"/>
<path d="M38.176 29V20.6H41.596C42.052 20.6 42.464 20.716 42.832 20.948C43.208 21.172 43.508 21.48 43.732 21.872C43.956 22.264 44.068 22.7 44.068 23.18C44.068 23.66 43.956 24.096 43.732 24.488C43.508 24.88 43.208 25.196 42.832 25.436C42.464 25.668 42.052 25.784 41.596 25.784H39.472V29H38.176ZM39.472 24.536H41.572C41.788 24.536 41.984 24.476 42.16 24.356C42.336 24.228 42.476 24.064 42.58 23.864C42.692 23.656 42.748 23.428 42.748 23.18C42.748 22.932 42.692 22.708 42.58 22.508C42.476 22.308 42.336 22.148 42.16 22.028C41.984 21.908 41.788 21.848 41.572 21.848H39.472V24.536ZM49.2975 29.12C48.7055 29.12 48.1575 29.012 47.6535 28.796C47.1575 28.58 46.7215 28.28 46.3455 27.896C45.9775 27.504 45.6895 27.048 45.4815 26.528C45.2815 26 45.1815 25.424 45.1815 24.8C45.1815 24.176 45.2815 23.604 45.4815 23.084C45.6895 22.556 45.9775 22.1 46.3455 21.716C46.7215 21.324 47.1575 21.02 47.6535 20.804C48.1575 20.588 48.7055 20.48 49.2975 20.48C49.8895 20.48 50.4335 20.588 50.9295 20.804C51.4335 21.02 51.8695 21.324 52.2375 21.716C52.6135 22.108 52.9015 22.568 53.1015 23.096C53.3095 23.616 53.4135 24.184 53.4135 24.8C53.4135 25.416 53.3095 25.988 53.1015 26.516C52.9015 27.036 52.6135 27.492 52.2375 27.884C51.8695 28.276 51.4335 28.58 50.9295 28.796C50.4335 29.012 49.8895 29.12 49.2975 29.12ZM49.2975 27.86C49.7055 27.86 50.0775 27.784 50.4135 27.632C50.7575 27.48 51.0535 27.268 51.3015 26.996C51.5495 26.716 51.7415 26.392 51.8775 26.024C52.0215 25.648 52.0935 25.24 52.0935 24.8C52.0935 24.36 52.0215 23.956 51.8775 23.588C51.7415 23.212 51.5495 22.888 51.3015 22.616C51.0535 22.336 50.7575 22.12 50.4135 21.968C50.0775 21.816 49.7055 21.74 49.2975 21.74C48.8895 21.74 48.5135 21.816 48.1695 21.968C47.8335 22.12 47.5375 22.332 47.2815 22.604C47.0335 22.876 46.8415 23.2 46.7055 23.576C46.5695 23.944 46.5015 24.352 46.5015 24.8C46.5015 25.24 46.5695 25.648 46.7055 26.024C46.8415 26.4 47.0335 26.724 47.2815 26.996C47.5375 27.268 47.8335 27.48 48.1695 27.632C48.5135 27.784 48.8895 27.86 49.2975 27.86ZM57.7602 29.12C57.3042 29.12 56.8802 29.06 56.4882 28.94C56.1042 28.82 55.7522 28.64 55.4322 28.4C55.1202 28.152 54.8402 27.848 54.5922 27.488L55.4802 26.468C55.8722 27.028 56.2482 27.416 56.6082 27.632C56.9682 27.848 57.3962 27.956 57.8922 27.956C58.1962 27.956 58.4722 27.908 58.7202 27.812C58.9682 27.716 59.1642 27.584 59.3082 27.416C59.4522 27.248 59.5242 27.056 59.5242 26.84C59.5242 26.696 59.5002 26.56 59.4522 26.432C59.4042 26.304 59.3282 26.188 59.2242 26.084C59.1282 25.98 59.0002 25.884 58.8402 25.796C58.6882 25.708 58.5082 25.632 58.3002 25.568C58.0922 25.496 57.8522 25.436 57.5802 25.388C57.1482 25.3 56.7722 25.184 56.4522 25.04C56.1322 24.896 55.8642 24.716 55.6482 24.5C55.4322 24.284 55.2722 24.04 55.1682 23.768C55.0642 23.488 55.0122 23.176 55.0122 22.832C55.0122 22.496 55.0842 22.184 55.2282 21.896C55.3802 21.608 55.5842 21.36 55.8402 21.152C56.1042 20.936 56.4122 20.772 56.7642 20.66C57.1162 20.54 57.4962 20.48 57.9042 20.48C58.3362 20.48 58.7322 20.536 59.0922 20.648C59.4522 20.76 59.7722 20.928 60.0522 21.152C60.3322 21.368 60.5642 21.636 60.7482 21.956L59.8362 22.856C59.6762 22.592 59.4962 22.372 59.2962 22.196C59.0962 22.012 58.8762 21.876 58.6362 21.788C58.3962 21.692 58.1402 21.644 57.8682 21.644C57.5562 21.644 57.2842 21.692 57.0522 21.788C56.8202 21.884 56.6362 22.02 56.5002 22.196C56.3722 22.364 56.3082 22.564 56.3082 22.796C56.3082 22.964 56.3402 23.12 56.4042 23.264C56.4682 23.4 56.5642 23.524 56.6922 23.636C56.8282 23.74 57.0082 23.836 57.2322 23.924C57.4562 24.004 57.7242 24.076 58.0362 24.14C58.4762 24.236 58.8682 24.36 59.2122 24.512C59.5562 24.656 59.8482 24.828 60.0882 25.028C60.3282 25.228 60.5082 25.452 60.6282 25.7C60.7562 25.948 60.8202 26.216 60.8202 26.504C60.8202 27.04 60.6962 27.504 60.4482 27.896C60.2002 28.288 59.8482 28.592 59.3922 28.808C58.9362 29.016 58.3922 29.12 57.7602 29.12Z" fill="#5AC8FA"/>
</svg>
